# AST/ASF file generated using VICON BodyLanguage
# -----------------------------------------------
:version 1.10
:name VICON
:units
  mass 1.0
  length 0.45
  angle deg
:documentation
   .ast/.asf automatically generated from VICON data using
   VICON BodyBuilder and BodyLanguage model FoxedUp or BRILLIANT.MOD
:root
   order TX TY TZ RX RY RZ
   axis XYZ
   position 0 0 0  
   orientation 0 0 0 
:bonedata
  begin
     id 1 
     name lhipjoint
     direction 0.573633 -0.743009 0.344793 
     length 2.46257 
     axis 0 0 0  XYZ
  end
  begin
     id 2 
     name lfemur
     direction 0.34202 -0.939693 0  
     length 7.3842  
     axis 0 0 20  XYZ
    dof rx ry rz
    limits (-160.0 20.0)
           (-70.0 70.0)
           (-60.0 70.0)
  end
  begin
     id 3 
     name ltibia
     direction 0.34202 -0.939693 0   
     length 7.50407   
     axis 0 0 20   XYZ
    dof rx
    limits (-10.0 170.0)
  end
  begin
     id 4 
     name lfoot
     direction 0.110749 -0.304281 0.946123   
     length 1.95925   
     axis -90 7.62852e-016 20   XYZ
    dof rx rz
    limits (-45.0 90.0)
           (-70.0 20.0)
  end
  begin
     id 5 
     name ltoes
     direction 1.53554e-011 -4.21843e-011 1   
     length 0.978318   
     axis -90 7.62852e-016 20   XYZ
    dof rx
    limits (-90.0 20.0)
  end
  begin
     id 6 
     name rhipjoint
     direction -0.488109 -0.791693 0.367385   
     length 2.31113  
     axis 0 0 0  XYZ 
  end
  begin
     id 7 
     name rfemur
     direction -0.34202 -0.939693 0   
     length 7.40965   
     axis 0 0 -20   XYZ
    dof rx ry rz
    limits (-160.0 20.0)
           (-70.0 70.0)
           (-70.0 60.0)
  end
  begin
     id 8 
     name rtibia
     direction -0.34202 -0.939693 0   
     length 7.55548   
     axis 0 0 -20   XYZ
    dof rx
    limits (-10.0 170.0)
 end
 begin
     id 9 
     name rfoot
     direction -0.127594 -0.350561 0.927808   
     length 2.07199  
     axis -90 -7.62852e-016 -20   XYZ
    dof rx rz
    limits (-45.0 90.0)
           (-20.0 70.0)
  end
  begin
     id 10 
     name rtoes
     direction -1.53542e-011 -4.21909e-011 1   
     length 1.02667   
     axis -90 -7.62852e-016 -20   XYZ
    dof rx
    limits (-90.0 20.0)
  end
  begin
     id 11 
     name lowerback
     direction -0.0103342 0.997298 -0.0727278   
     length 2.02836   
     axis 0 0 0   XYZ
    dof rx ry rz
    limits (-20.0 45.0)
           (-30.0 30.0)
           (-30.0 30.0)
  end
  begin
     id 12 
     name upperback
     direction 0.0171146 0.999786 -0.011606   
     length 2.03179   
     axis 0 0 0   XYZ
    dof rx ry rz
    limits (-20.0 45.0)
           (-30.0 30.0)
           (-30.0 30.0)
  end
  begin
     id 13 
     name thorax
     direction 0.0216927 0.999513 0.0224343   
     length 2.03882   
     axis 0 0 0   XYZ
    dof rx ry rz
    limits (-20.0 45.0)
           (-30.0 30.0)
           (-30.0 30.0)
  end
  begin
     id 14 
     name lowerneck
     direction 0.000989287 0.993907 0.110221   
     length 1.75428   
     axis 0 0 0   XYZ
    dof rx ry rz
    limits (-20.0 45.0)
           (-30.0 30.0)
           (-30.0 30.0)
  end
  begin
     id 15 
     name upperneck
     direction -0.0172474 0.994813 -0.100253   
     length 1.77058   
     axis 0 0 0   XYZ
    dof rx ry rz
    limits (-20.0 45.0)
           (-30.0 30.0)
           (-30.0 30.0)
  end
  begin
     id 16
     name head
     direction -0.00486455 0.99894 -0.0457663  
     length 1.77427  
     axis 0 0 0   XYZ
    dof rx ry rz
    limits (-20.0 45.0)
           (-30.0 30.0)
           (-30.0 30.0)
  end
  begin
     id 17 
     name lclavicle
     direction 0.927314 0.333734 -0.169441  
     length 3.97584  
     axis 0 0 0   XYZ
    dof ry rz
    limits (-20.0 10.0)
           (0.0 20.0)
  end
  begin
     id 18 
     name lhumerus
     direction 1 -4.48965e-011 -3.25313e-028   
     length 4.76468   
     axis 180 -30 -90   XYZ
    dof rx ry rz
    limits (-60.0 90.0)
           (-90.0 90.0)
           (-90.0 90.0)
  end
  begin
     id 19
     name lradius
     direction 1 -4.48969e-011 -2.8465e-028   
     length 3.52712   
     axis -180 -30 -90   XYZ
    dof rx
    limits (-10.0 170.0)
  end
  begin
     id 20
     name lwrist
     direction 1 -4.4896e-011 -7.78665e-028   
     length 1.76356   
     axis 1.91374e-015 90 90   XYZ
    dof ry
    limits (-180.0 0.0)
 end
  begin
     id 21 
     name lhand
     direction 1 -4.48959e-011 -1.55733e-027   
     length 0.859564   
     axis 9.9371e-016 90 90   XYZ
    dof rx rz
    limits (-90.0 90.0)
           (-45.0 45.0)
  end
  begin
     id 22 
     name lfingers
     direction 1 -4.48965e-011 -3.11466e-027   
     length 0.693002   
     axis 1.98742e-015 90 90   XYZ
    dof rx
    limits (0.0 90.0)
  end
  begin
     id 23
     name lthumb
     direction 0.707107 -6.34948e-011 0.707107   
     length 0.995017   
     axis -90 45 2.85299e-015   XYZ
    dof rx rz
    limits (-45.0 45.0)
           (-45.0 45.0)
  end
  begin
     id 24 
     name rclavicle
     direction -0.899388 0.348209 -0.264294   
     length 3.68366  
     axis 0 0 0   XYZ 
    dof ry rz
    limits (-10.0 20.0)
           (-20.0 0.0)
  end
  begin
     id 25 
     name rhumerus
     direction -1 -4.48965e-011 -3.01536e-027  
     length 4.90577   
     axis 180 30 90   XYZ
    dof rx ry rz
    limits (-90.0 60.0)
           (-90.0 90.0)
           (-90.0 90.0)
  end
  begin
     id 26 
     name rradius
     direction -1 -4.48966e-011 3.93291e-027   
     length 3.42692   
     axis -180 30 90   XYZ
    dof rx
    limits (-10.0 170.0)
  end
  begin
     id 27 
     name rwrist
     direction -1 -4.48969e-011 -7.78665e-028   
     length 1.71346   
     axis 1.91374e-015 -90 -90   XYZ
    dof ry
    limits (-180.0 0.0)
  end
  begin
     id 28
     name rhand
     direction -1 -4.48967e-011 -1.55733e-027   
     length 0.740957   
     axis 9.9371e-016 -90 -90   XYZ
    dof rx rz
    limits (-90.0 90.0)
           (-45.0 45.0)
  end
  begin
     id 29
     name rfingers
     direction -1 -4.48949e-011 -3.11466e-027   
     length 0.597378   
     axis 1.98742e-015 -90 -90   XYZ
    dof rx
    limits (0.0 90.0)
  end
  begin
     id 30
     name rthumb
     direction -0.707107 -6.34931e-011 0.707107   
     length 0.857719   
     axis -90 -45 -2.85299e-015   XYZ
    dof rx rz
    limits (-45.0 45.0)
           (-45.0 45.0)
  end
:hierarchy
  begin
    root lhipjoint rhipjoint lowerback
    lhipjoint lfemur
    lfemur ltibia
    ltibia lfoot
    lfoot ltoes
    rhipjoint rfemur
    rfemur rtibia
    rtibia rfoot
    rfoot rtoes
    lowerback upperback
    upperback thorax
    thorax lowerneck lclavicle rclavicle
    lowerneck upperneck
    upperneck head
    lclavicle lhumerus
    lhumerus lradius
    lradius lwrist
    lwrist lhand lthumb
    lhand lfingers
    rclavicle rhumerus
    rhumerus rradius
    rradius rwrist
    rwrist rhand rthumb
    rhand rfingers
  end

#!OML:ASF E:\I on waltz\AllaLogoMonkeySwing\Project 1\Capture day 1\Session 1\Subject1.ASF
:FULLY-SPECIFIED
:DEGREES
274
root -0.0275189 17.8624 1.27396 181.046 0.748204 179.965
lowerback 7.32573 -0.150186 -1.73126
upperback -0.543681 -0.262053 1.47624
thorax -4.66194 -0.0584564 2.53608
lowerneck -13.3146 0.750617 -0.0877419
upperneck 17.5731 1.35399 0.223661
head 7.60471 0.800673 0.247108
rclavicle 2.23633e-015 -9.54166e-015
rhumerus -36.3841 -30.4216 -69.7267
rradius 26.4039
rwrist 4.51202
rhand -7.15653 -37.0467
rfingers 7.12502
rthumb 18.7203 -66.1659
lclavicle 2.23633e-015 -9.54166e-015
lhumerus -45.2664 32.7721 71.5546
lradius 28.7648
lwrist -12.4465
lhand -5.28106 -12.2804
lfingers 7.12502
lthumb 20.5234 16.6548
rfemur -5.02931 1.07685 16.8968
rtibia 20.9003
rfoot -15.5531 -7.90159
rtoes 12.9061
lfemur 3.03877 -2.28346 -11.7701
ltibia 7.84751
lfoot -12.1087 2.98409
ltoes -37.6063
275
root 0.0148718 17.8598 1.24761 181.215 1.0134 179.986
lowerback 7.32301 -0.192593 -1.87554
upperback -0.693879 -0.334104 1.48394
thorax -4.81244 -0.0882198 2.63505
lowerneck -13.3087 0.810963 0.0543073
upperneck 17.6486 1.41699 0.194812
head 7.6296 0.83913 0.221315
rclavicle -6.21202e-015 -6.75868e-015
rhumerus -36.5755 -30.4582 -69.4248
rradius 26.6047
rwrist 4.22117
rhand -7.20944 -37.2381
rfingers 7.12502
rthumb 18.6694 -66.3622
lclavicle -6.21202e-015 -6.75868e-015
lhumerus -44.762 32.0509 72.1247
lradius 28.8342
lwrist -12.2952
lhand -5.63299 -12.1827
lfingers 7.12502
lthumb 20.1851 16.7886
rfemur -5.28928 1.23751 17.1055
rtibia 21.1593
rfoot -15.7597 -7.77501
rtoes 12.9255
lfemur 3.06052 -2.55433 -11.67
ltibia 7.80592
lfoot -12.1116 3.41564
ltoes -36.9771
276
root 0.0617327 17.8532 1.22373 181.396 1.20281 179.777
lowerback 7.29187 -0.295899 -2.27179
upperback -0.798859 -0.513171 1.44292
thorax -4.89136 -0.166361 2.83705
lowerneck -13.4813 0.899636 0.274344
upperneck 17.8031 1.51511 0.0848307
head 7.71376 0.890254 0.1612
rclavicle 4.47266e-016 -3.97569e-016
rhumerus -36.6454 -30.4586 -69.1969
rradius 26.7264
rwrist 3.91405
rhand -7.33068 -37.3071
rfingers 7.12502
rthumb 18.5528 -66.4424
lclavicle 4.47266e-016 -3.97569e-016
lhumerus -44.1737 31.3883 72.6753
lradius 28.9447
lwrist -11.9022
lhand -5.82125 -12.184
lfingers 7.12502
lthumb 20.0042 16.8063
rfemur -5.55948 1.28321 17.0216
rtibia 21.4171
rfoot -15.9268 -7.59507
rtoes 13.0241
lfemur 2.99044 -3.02207 -11.8335
ltibia 7.92331
lfoot -12.184 3.72295
ltoes -35.7888
277
root 0.111467 17.8482 1.19233 181.433 1.64589 179.653
lowerback 7.22656 -0.353175 -2.57742
upperback -0.792073 -0.619184 1.4075
thorax -4.83805 -0.212931 2.98364
lowerneck -13.6738 1.03801 0.399371
upperneck 17.9677 1.66711 0.147866
head 7.80308 0.977136 0.179831
rclavicle 7.11898e-015 1.03368e-014
rhumerus -36.7158 -30.41 -69.0329
rradius 26.8889
rwrist 3.58306
rhand -7.38411 -37.2883
rfingers 7.12502
rthumb 18.5014 -66.4284
lclavicle 7.11898e-015 1.03368e-014
lhumerus -43.5499 30.6928 73.1963
lradius 29.1636
lwrist -11.2902
lhand -5.82048 -12.1712
lfingers 7.12502
lthumb 20.0049 16.819
rfemur -5.68066 1.58499 17.0746
rtibia 21.6844
rfoot -16.179 -7.31723
rtoes 13.6
lfemur 3.13679 -3.20717 -11.8624
ltibia 8.06634
lfoot -12.2062 4.163
ltoes -35.3134
278
root 0.165263 17.8415 1.16173 181.438 2.18904 179.653
lowerback 7.16535 -0.418506 -2.73724
upperback -0.786632 -0.721693 1.3774
thorax -4.78921 -0.261333 3.05285
lowerneck -13.8436 1.2187 0.359064
upperneck 18.1692 1.87172 0.44022
head 7.897 1.10193 0.30799
rclavicle -6.21202e-017 -1.47101e-014
rhumerus -36.8494 -30.2687 -68.9036
rradius 27.0135
rwrist 3.25154
rhand -7.49233 -37.2146
rfingers 7.12502
rthumb 18.3973 -66.3647
lclavicle -6.21202e-017 -1.47101e-014
lhumerus -42.9849 29.8635 73.6817
lradius 29.4669
lwrist -10.5385
lhand -5.8937 -11.9428
lfingers 7.12502
lthumb 19.9345 17.0547
rfemur -5.77677 1.8829 17.2856
rtibia 21.9613
rfoot -16.5099 -6.91019
rtoes 14.4871
lfemur 3.22556 -3.01709 -11.6963
ltibia 8.41114
lfoot -12.1967 4.7377
ltoes -36.399
279
root 0.221093 17.8331 1.13425 181.423 2.76816 179.77
lowerback 7.14738 -0.486449 -2.7545
upperback -0.790179 -0.814631 1.36203
thorax -4.77598 -0.307527 3.05649
lowerneck -13.967 1.37472 0.448325
upperneck 18.3668 2.04009 0.607538
head 7.98373 1.2072 0.369969
rclavicle -9.30561e-015 1.0138e-014
rhumerus -37.0389 -30.1394 -68.7281
rradius 27.0653
rwrist 3.03611
rhand -7.58538 -37.1942
rfingers 7.12502
rthumb 18.3077 -66.3527
lclavicle -9.30561e-015 1.0138e-014
lhumerus -42.3903 29.151 74.0617
lradius 29.6442
lwrist -10.0088
lhand -6.06384 -11.795
lfingers 7.12502
lthumb 19.771 17.2195
rfemur -5.82308 2.07785 17.6302
rtibia 22.1599
rfoot -16.7477 -6.4327
rtoes 15.0381
lfemur 3.23016 -2.65893 -11.3888
ltibia 9.04293
lfoot -12.2261 5.4518
ltoes -38.2785
280
root 0.279139 17.8229 1.10916 181.406 3.43381 179.943
lowerback 7.16462 -0.540454 -2.70543
upperback -0.800896 -0.883106 1.358
thorax -4.79262 -0.342387 3.03253
lowerneck -13.8777 1.44523 0.64735
upperneck 18.376 2.09542 0.608758
head 7.97303 1.24833 0.342753
rclavicle 6.03808e-015 7.95139e-016
rhumerus -37.277 -30.0675 -68.5039
rradius 27.061
rwrist 2.94545
rhand -7.57672 -37.1768
rfingers 7.12502
rthumb 18.3161 -66.3345
lclavicle 6.03808e-015 7.95139e-016
lhumerus -41.761 28.7282 74.2744
lradius 29.6774
lwrist -9.88065
lhand -6.25243 -11.8412
lfingers 7.12502
lthumb 19.5897 17.1919
rfemur -5.89035 2.29745 18.0613
rtibia 22.3832
rfoot -16.9476 -5.9584
rtoes 14.9971
lfemur 3.16723 -2.3911 -11.0283
ltibia 9.80394
lfoot -12.3909 6.21453
ltoes -39.0884
281
root 0.335181 17.8161 1.0767 181.219 4.39019 180.09
lowerback 7.24461 -0.535186 -2.645
upperback -0.740428 -0.872768 1.3307
thorax -4.77655 -0.339933 2.96942
lowerneck -13.4684 1.36198 0.699463
upperneck 18.0615 1.95349 0.662424
head 7.79558 1.18657 0.329356
rclavicle -8.18744e-015 -2.98177e-015
rhumerus -37.4834 -30.0188 -68.2566
rradius 26.9217
rwrist 2.96909
rhand -7.51503 -37.1333
rfingers 7.12502
rthumb 18.3754 -66.2854
lclavicle -8.18744e-015 -2.98177e-015
lhumerus -41.0893 28.3496 74.4261
lradius 29.6054
lwrist -9.66882
lhand -6.46421 -12.0461
lfingers 7.12502
lthumb 19.3861 17.0075
rfemur -5.77204 2.63387 18.4696
rtibia 22.6544
rfoot -17.2581 -5.33448
rtoes 14.7231
lfemur 3.42105 -2.21098 -10.767
ltibia 10.3878
lfoot -12.4809 7.06852
ltoes -39.0527
282
root 0.396646 17.8063 1.05211 181.092 5.23529 180.284
lowerback 7.28093 -0.58683 -2.60155
upperback -0.66882 -0.936385 1.34047
thorax -4.71821 -0.37381 2.96174
lowerneck -13.3199 1.52237 0.844655
upperneck 17.9701 2.13088 0.718676
head 7.73995 1.28499 0.34012
rclavicle -3.97569e-016 1.80894e-014
rhumerus -37.6544 -30.0599 -67.9545
rradius 26.7121
rwrist 3.09863
rhand -7.5712 -37.1545
rfingers 7.12502
rthumb 18.3214 -66.3117
lclavicle -3.97569e-016 1.80894e-014
lhumerus -40.3935 28.0301 74.5689
lradius 29.5868
lwrist -9.43435
lhand -6.47288 -12.3392
lfingers 7.12502
lthumb 19.3777 16.7153
rfemur -5.68677 2.96067 18.9637
rtibia 22.8897
rfoot -17.5279 -4.86139
rtoes 14.6084
lfemur 3.41106 -2.16547 -10.3989
ltibia 11.3363
lfoot -12.6287 7.77613
ltoes -38.7887
283
root 0.460973 17.795 1.0326 181.003 6.05093 180.613
lowerback 7.31494 -0.633303 -2.40928
upperback -0.602011 -0.977687 1.3777
thorax -4.667 -0.399435 2.8962
lowerneck -13.2611 1.68896 1.10417
upperneck 17.9847 2.31159 0.694407
head 7.73806 1.38664 0.307813
rclavicle -1.28402e-014 5.36719e-015
rhumerus -37.9679 -30.2987 -67.5091
rradius 26.5428
rwrist 3.3281
rhand -7.68824 -37.1862
rfingers 7.12502
rthumb 18.2088 -66.3539
lclavicle -1.28402e-014 5.36719e-015
lhumerus -39.7816 27.8717 74.6431
lradius 29.7867
lwrist -9.41124
lhand -6.357 -12.267
lfingers 7.12502
lthumb 19.4891 16.7763
rfemur -5.58725 3.27689 19.6362
rtibia 23.0179
rfoot -17.6716 -4.46712
rtoes 14.4339
lfemur 3.1592 -2.07138 -9.83072
ltibia 12.7156
lfoot -12.827 8.41436
ltoes -39.0447
284
root 0.52421 17.7851 1.01411 180.964 6.86498 180.973
lowerback 7.39867 -0.676718 -2.13316
upperback -0.604433 -1.00945 1.40808
thorax -4.71848 -0.420185 2.77723
lowerneck -13.2785 1.8791 1.49894
upperneck 18.1984 2.53454 0.527047
head 7.82025 1.50864 0.213932
rclavicle 2.50966e-014 -1.18277e-014
rhumerus -38.4985 -30.6661 -66.8638
rradius 26.3966
rwrist 3.65863
rhand -7.63486 -37.1697
rfingers 7.12502
rthumb 18.2601 -66.3326
lclavicle 2.50966e-014 -1.18277e-014
lhumerus -39.2299 27.6804 74.6933
lradius 30.019
lwrist -9.26067
lhand -6.40271 -11.9283
lfingers 7.12502
lthumb 19.4452 17.1193
rfemur -5.51307 3.52853 20.313
rtibia 23.0956
rfoot -17.7661 -3.92916
rtoes 14.5244
lfemur 2.71742 -1.66944 -9.19225
ltibia 14.3159
lfoot -12.6658 8.98241
ltoes -40.9686
285
root 0.587801 17.7785 0.99519 180.926 7.65766 181.176
lowerback 7.45326 -0.741724 -2.05239
upperback -0.597723 -1.08789 1.42922
thorax -4.73833 -0.460208 2.76347
lowerneck -13.2116 2.13495 1.86621
upperneck 18.3065 2.8591 0.323604
head 7.85475 1.67157 0.121377
rclavicle 5.31749e-015 -7.55382e-015
rhumerus -39.0583 -31.2187 -66.0302
rradius 26.1904
rwrist 4.13952
rhand -7.50157 -37.114
rfingers 7.12502
rthumb 18.3884 -66.2648
lclavicle 5.31749e-015 -7.55382e-015
lhumerus -38.631 27.3626 74.8774
lradius 30.2657
lwrist -8.79212
lhand -6.59383 -11.681
lfingers 7.12502
lthumb 19.2614 17.3851
rfemur -5.41934 3.76078 20.7803
rtibia 23.1386
rfoot -17.8374 -3.27333
rtoes 15.1206
lfemur 2.20231 -1.27649 -8.739
ltibia 16.032
lfoot -12.3946 9.39575
ltoes -42.434
286
root 0.653875 17.7757 0.975163 180.791 8.48513 181.175
lowerback 7.52399 -0.805754 -2.2082
upperback -0.538369 -1.18857 1.41731
thorax -4.70727 -0.507233 2.85087
lowerneck -13.0703 2.43018 2.09505
upperneck 18.2832 3.23722 0.251463
head 7.83022 1.86041 0.0979447
rclavicle 3.1439e-014 -1.03368e-014
rhumerus -39.5636 -31.6623 -65.2516
rradius 25.9976
rwrist 4.48638
rhand -7.44387 -37.1849
rfingers 7.12502
rthumb 18.4439 -66.3305
lclavicle 3.1439e-014 -1.03368e-014
lhumerus -38.047 27.1491 75.0509
lradius 30.5221
lwrist -8.27782
lhand -6.7256 -11.7765
lfingers 7.12502
lthumb 19.1347 17.3022
rfemur -5.20455 4.03798 21.0197
rtibia 23.1376
rfoot -17.9296 -2.62755
rtoes 15.5744
lfemur 1.72602 -0.935277 -8.49774
ltibia 17.837
lfoot -12.3614 9.63962
ltoes -42.5882
